# Blender v2.76 (sub 0) OBJ File: 'house.blend'
# www.blender.org
mtllib house.mtl
o house_Cube
v 1.210526 -0.924413 2.421053
v -0.789474 -0.924413 2.421052
v -0.789473 -0.924413 0.421052
v 1.210526 0.695301 2.421053
v -0.789474 0.695301 2.421052
v -0.789474 0.695301 0.421053
v 0.210526 1.768383 1.421053
v 1.545401 0.335953 2.755929
v -1.124350 0.335953 2.755928
v 1.210526 -0.924413 -2.578947
v -0.789473 -0.924413 -2.578948
v 1.210527 0.695301 -2.578947
v -0.789474 0.695301 -2.578947
v 0.210526 1.768383 -1.578947
v 1.545402 0.335953 -2.913822
v -1.124349 0.335953 -2.913822
v -0.789473 -0.924413 -1.453948
v -0.789474 0.290373 0.421053
v -0.789473 -0.519485 0.421052
v -0.789474 -0.519485 1.421052
v -0.789474 0.290373 1.421052
v 1.210526 -0.519485 1.921053
v 0.710526 0.290373 2.421053
v 0.710526 -0.519485 2.421053
v -0.289474 -0.519485 2.421053
v 0.710526 -0.519485 -2.578947
v 0.710527 0.290373 -2.578947
v -0.289474 0.290373 -2.578947
v 1.210527 0.290373 -1.828947
v 1.210526 -0.519485 -1.828947
v -0.289473 -0.519485 -2.578947
v -0.789474 0.290373 0.921053
v -0.289474 0.290373 2.421053
v 1.210526 0.290373 1.921053
v -0.789473 -0.924413 -0.703948
v -0.789474 0.087908 -1.453947
v -0.789474 0.087908 -0.703947
v -0.789473 -0.519485 0.421052
v 1.187635 -0.906933 2.375271
v -0.774545 -0.906933 2.375270
v -0.774544 -0.906933 0.413090
v 1.187635 0.682153 2.375271
v -0.774545 0.682153 2.375270
v -0.774545 0.682153 0.413091
v 0.206545 1.734943 1.394181
v 1.516177 0.329600 2.703814
v -1.103088 0.329600 2.703813
v 1.187635 -0.906933 -2.530180
v -0.774544 -0.906933 -2.530180
v 1.187636 0.682153 -2.530179
v -0.774545 0.682153 -2.530180
v 0.206545 1.734943 -1.549089
v 1.516179 0.329600 -2.858721
v -1.103088 0.329600 -2.858722
v -0.774544 -0.906933 -1.426454
v -0.774545 0.284882 0.413090
v -0.774544 -0.509661 0.413090
v -0.774545 -0.509661 1.394180
v -0.774545 0.284882 1.394180
v 1.187635 -0.509661 1.884726
v 0.697090 0.284882 2.375271
v 0.697090 -0.509661 2.375271
v -0.284000 -0.509661 2.375271
v 0.697090 -0.509661 -2.530180
v 0.697091 0.284882 -2.530179
v -0.284000 0.284882 -2.530180
v 1.187636 0.284882 -1.794361
v 1.187635 -0.509661 -1.794362
v -0.284000 -0.509661 -2.530180
v -0.774545 0.284882 0.903636
v -0.284000 0.284882 2.375271
v 1.187635 0.284882 1.884726
v -0.774544 -0.906933 -0.690636
v -0.774545 0.086246 -1.426453
v -0.774545 0.086246 -0.690636
v -0.774544 -0.509661 0.413090
vt 0.370920 0.974744
vt 0.140109 0.974744
vt 0.140109 0.397717
vt 0.044024 0.309720
vt 0.044024 0.014300
vt 0.135219 0.235865
vt 0.952876 0.310034
vt 0.597216 0.310034
vt 0.686131 0.238026
vt 0.207637 0.797814
vt 0.366084 0.974926
vt 0.049189 0.974926
vt 0.023544 0.397358
vt 0.391729 0.397358
vt 0.447629 0.316965
vt 0.361296 0.247048
vt 0.102296 0.316965
vt 0.819183 0.235865
vt 0.188629 0.107212
vt 0.102296 0.037295
vt 0.188629 0.247048
vt 0.955976 0.014300
vt 0.819183 0.088155
vt 0.863961 0.238026
vt 0.863961 0.094009
vt 0.952876 0.022000
vt 0.686131 0.094009
vt 0.606947 0.128541
vt 0.404476 0.092030
vt 0.404501 0.019149
vt 0.447629 0.037295
vt 0.361296 0.107212
vt 0.207637 0.565237
vt 0.944356 0.310860
vt 0.741873 0.310790
vt 0.741936 0.128587
vt 0.404426 0.237793
vt 0.224491 0.091968
vt 0.044430 0.310550
vt 0.224441 0.237731
vt 0.597216 0.022000
vt 0.370920 0.397717
vt 0.944457 0.019335
vt 0.044531 0.019025
vt 0.606884 0.310743
vt 0.404401 0.310674
vt 0.135219 0.088155
vt 0.955976 0.309720
vt 0.000000 0.000000
vn 0.000000 -1.000000 -0.000000
vn 1.000000 0.000000 0.000000
vn -0.000000 -0.000000 1.000000
vn -0.000000 0.681800 0.731600
vn 0.731600 0.681800 0.000000
vn -0.731600 0.681800 -0.000000
vn 0.000000 0.000000 -1.000000
vn -1.000000 -0.000000 -0.000000
vn 0.000000 0.681800 -0.731600
vn 0.000000 1.000000 -0.000000
vn 0.000000 -0.681800 -0.731600
vn -0.731600 -0.681800 -0.000000
vn 0.731600 -0.681800 0.000000
vn -0.000000 -0.681800 0.731600
vn 0.660900 0.750400 0.000000
vn 0.394400 0.919000 0.000000
vn 0.212400 -0.977200 0.000000
vn -0.874200 -0.000000 -0.485600
vn -0.110700 -0.993900 0.000000
vn 0.833900 -0.000000 0.551900
vn -0.000000 -0.992900 0.119100
vn 0.470600 -0.000000 0.882400
vn -0.498100 0.867100 -0.000000
vn 0.000000 0.980300 -0.197500
vn -0.878800 -0.000000 0.477200
vn -0.959500 -0.000000 0.281600
vn 0.993800 0.000000 -0.111500
vn 0.233300 -0.972400 0.000000
vn 0.760400 -0.649400 0.000000
vn -0.345200 -0.938500 -0.000000
vn 0.000000 0.977700 0.209800
vn 0.665500 0.000000 -0.746400
vn -0.286300 -0.958100 -0.000000
vn -0.000000 -0.992700 0.121000
vn 0.000000 -0.993700 -0.111900
vn -0.964100 0.000000 -0.265600
vn 0.846000 0.000000 -0.533100
vn -0.470600 0.000000 -0.882400
vn -0.549700 0.835400 -0.000000
vn -0.000000 0.965500 0.260300
vn -0.760400 0.649400 -0.000000
vn 0.992900 0.000000 0.118700
vn 0.000000 0.961100 -0.276000
vn 0.000000 -0.993400 -0.114500
vn 0.660900 0.750500 0.000000
vn 0.356100 -0.930700 -0.083700
vn -0.624600 0.734800 -0.264500
usemtl Material
s off
f 1/1/1 2/2/1 11/3/1
f 4/4/2 1/5/2 34/6/2
f 2/7/3 1/8/3 24/9/3
f 7/10/4 9/11/4 8/12/4
f 8/12/5 15/13/5 7/10/5
f 9/11/6 7/10/6 16/14/6
f 12/15/7 27/16/7 13/17/7
f 4/4/2 34/6/2 29/18/2
f 31/19/7 11/20/7 28/21/7
f 1/5/2 10/22/2 30/23/2
f 25/24/3 33/25/3 5/26/3
f 33/25/3 23/27/3 5/26/3
f 23/27/3 24/9/3 1/8/3
f 37/28/8 18/29/8 6/30/8
f 10/31/7 26/32/7 27/16/7
f 16/14/9 14/33/9 15/13/9
f 29/18/2 30/23/2 10/22/2
f 26/32/7 11/20/7 31/19/7
f 11/34/8 17/35/8 36/36/8
f 36/36/8 37/28/8 6/30/8
f 37/28/8 38/37/8 18/29/8
f 6/30/8 18/29/8 21/38/8
f 19/37/8 2/39/8 20/40/8
f 20/40/8 2/39/8 21/38/8
f 25/24/3 2/7/3 24/9/3
f 2/7/3 25/24/3 5/26/3
f 4/41/3 23/27/3 1/8/3
f 23/27/3 4/41/3 5/26/3
f 10/31/7 11/20/7 26/32/7
f 28/21/7 11/20/7 13/17/7
f 10/42/1 1/1/1 11/3/1
f 13/43/8 36/36/8 6/30/8
f 2/39/8 5/44/8 21/38/8
f 35/45/8 3/46/8 38/37/8
f 5/44/8 6/30/8 21/38/8
f 13/43/8 11/34/8 36/36/8
f 15/13/5 14/33/5 7/10/5
f 7/10/6 14/33/6 16/14/6
f 13/17/7 27/16/7 28/21/7
f 12/15/7 10/31/7 27/16/7
f 22/47/2 1/5/2 30/23/2
f 1/5/2 22/47/2 34/6/2
f 12/48/2 29/18/2 10/22/2
f 3/46/8 2/39/8 19/37/8
f 39/1/10 49/3/10 40/2/10
f 42/4/8 72/6/8 39/5/8
f 40/7/7 62/9/7 39/8/7
f 45/10/11 46/12/11 47/11/11
f 46/12/12 45/10/12 53/13/12
f 47/11/13 54/14/13 45/10/13
f 50/15/3 51/17/3 65/16/3
f 42/4/8 50/48/8 67/18/8
f 69/19/3 66/21/3 49/20/3
f 39/5/8 68/23/8 48/22/8
f 63/24/7 43/26/7 71/25/7
f 71/25/7 43/26/7 61/27/7
f 61/27/7 39/8/7 62/9/7
f 75/28/2 44/30/2 56/29/2
f 48/31/3 65/16/3 64/32/3
f 54/14/14 53/13/14 52/33/14
f 67/18/8 48/22/8 68/23/8
f 64/32/3 69/19/3 49/20/3
f 49/34/2 74/36/2 55/35/2
f 74/36/2 44/30/2 75/28/2
f 75/28/2 56/29/2 76/37/2
f 44/30/2 59/38/2 56/29/2
f 57/37/2 58/40/2 40/39/2
f 58/40/2 59/38/2 40/39/2
f 63/24/7 62/9/7 40/7/7
f 40/7/7 43/26/7 63/24/7
f 42/41/7 39/8/7 61/27/7
f 61/27/7 43/26/7 42/41/7
f 48/31/3 64/32/3 49/20/3
f 66/21/3 51/17/3 49/20/3
f 48/42/10 49/3/10 39/1/10
f 51/43/2 44/30/2 74/36/2
f 40/39/2 59/38/2 43/44/2
f 73/45/2 75/28/2 76/37/2
f 43/44/2 59/38/2 44/30/2
f 51/43/2 74/36/2 49/34/2
f 53/13/12 45/10/12 52/33/12
f 45/10/13 54/14/13 52/33/13
f 51/17/3 66/21/3 65/16/3
f 50/15/3 65/16/3 48/31/3
f 60/47/8 68/23/8 39/5/8
f 39/5/8 72/6/8 60/47/8
f 50/48/8 48/22/8 67/18/8
f 41/46/2 57/37/2 40/39/2
f 6/30/15 44/30/15 51/43/15
f 30/23/16 68/23/16 60/47/16
f 8/12/17 46/12/17 53/13/17
f 21/38/18 59/38/18 58/40/18
f 37/28/19 36/36/19 74/36/19
f 29/18/20 67/18/20 68/23/20
f 33/25/21 71/25/21 61/27/21
f 38/37/22 3/46/22 41/46/22
f 4/4/23 12/48/23 50/48/23
f 31/19/24 69/19/24 64/32/24
f 36/36/25 17/35/25 55/35/25
f 23/27/26 61/27/26 62/9/26
f 28/21/27 66/21/27 69/19/27
f 29/18/28 34/6/28 72/6/28
f 17/35/29 11/34/29 49/34/29
f 18/29/30 56/29/30 59/38/30
f 25/24/31 24/9/31 62/9/31
f 37/28/32 75/28/32 73/45/32
f 9/11/33 16/14/33 54/14/33
f 9/11/34 47/11/34 46/12/34
f 18/29/22 38/37/22 76/37/22
f 3/46/29 35/45/29 73/45/29
f 28/21/35 27/16/35 65/16/35
f 6/30/15 5/44/15 43/44/15
f 27/16/36 26/32/36 64/32/36
f 34/6/37 22/47/37 60/47/37
f 19/37/38 57/37/38 41/46/38
f 19/37/39 20/40/39 58/40/39
f 13/17/40 51/17/40 50/15/40
f 2/2/41 40/2/41 49/3/41
f 33/25/42 25/24/42 63/24/42
f 5/26/43 4/41/43 42/41/43
f 3/46/29 41/46/29 40/39/29
f 16/14/44 15/13/44 53/13/44
f 12/48/2 4/4/2 29/18/2
f 37/28/8 35/45/8 38/37/8
f 72/6/8 42/4/8 67/18/8
f 41/46/2 73/45/2 76/37/2
f 13/43/45 6/30/45 51/43/45
f 22/47/16 30/23/16 60/47/16
f 15/13/17 8/12/17 53/13/17
f 20/40/18 21/38/18 58/40/18
f 75/28/19 37/28/19 74/36/19
f 30/23/20 29/18/20 68/23/20
f 23/27/21 33/25/21 61/27/21
f 76/37/22 38/37/22 41/46/22
f 42/4/23 4/4/23 50/48/23
f 26/32/24 31/19/24 64/32/24
f 74/36/25 36/36/25 55/35/25
f 24/9/26 23/27/26 62/9/26
f 31/19/27 28/21/27 69/19/27
f 67/18/28 29/18/28 72/6/28
f 55/35/29 17/35/29 49/34/29
f 21/38/30 18/29/30 59/38/30
f 63/24/31 25/24/31 62/9/31
f 35/45/32 37/28/32 73/45/32
f 47/11/33 9/11/33 54/14/33
f 8/12/34 9/11/34 46/12/34
f 56/29/22 18/29/22 76/37/22
f 41/46/29 3/46/29 73/45/29
f 66/21/35 28/21/35 65/16/35
f 44/30/45 6/30/45 43/44/45
f 65/16/36 27/16/36 64/32/36
f 72/6/37 34/6/37 60/47/37
f 3/46/38 19/37/38 41/46/38
f 57/37/39 19/37/39 58/40/39
f 12/15/40 13/17/40 50/15/40
f 11/3/41 2/2/41 49/3/41
f 71/25/42 33/25/42 63/24/42
f 43/26/43 5/26/43 42/41/43
f 2/39/29 3/46/29 40/39/29
f 54/14/44 16/14/44 53/13/44
usemtl Material_NONE
f 18/49/30 56/49/30 70/49/30
f 32/49/30 70/49/30 59/38/30
f 34/6/46 72/49/46 50/48/46
f 38/37/47 76/49/47 73/45/47
f 32/49/30 18/49/30 70/49/30
f 21/49/30 32/49/30 59/38/30
f 12/49/46 34/6/46 50/48/46
f 35/49/47 38/37/47 73/45/47
