# Blender v2.76 (sub 0) OBJ File: ''
# www.blender.org
o Cube
v -0.987190 0.719232 -0.000000
v -0.923880 0.719232 -0.382683
v -0.698049 0.719232 -0.698049
v -0.382683 0.719232 -0.923880
v -0.000001 0.719232 -0.987190
v -0.923880 0.719232 0.382683
v -0.698049 0.719232 0.698049
v -0.382683 0.719232 0.923880
v 0.000000 0.719232 0.987190
v 0.382684 0.719232 0.923879
v 0.698049 0.719232 0.698048
v -0.388990 2.323200 -0.161125
v -0.415646 2.323200 0.000000
v 0.923880 0.719232 0.382683
v 0.987190 0.719232 -0.000001
v 0.923879 0.719232 -0.382684
v 0.698048 0.719232 -0.698050
v 0.382682 0.719232 -0.923880
v -0.000000 1.832197 -0.000000
v -0.293906 2.323200 -0.293906
v -0.161125 2.323200 -0.388990
v -0.000000 2.323200 -0.415646
v -0.388990 2.323200 0.161125
v -0.293906 2.323200 0.293906
v -0.161125 2.323200 0.388990
v 0.000000 2.323200 0.415646
v 0.161125 2.323200 0.388990
v 0.293907 2.323200 0.293906
v 0.388990 2.323200 0.161125
v 0.415646 2.323200 -0.000000
v 0.388990 2.323200 -0.161125
v 0.293906 2.323200 -0.293907
v 0.161125 2.323200 -0.388990
v 0.000000 2.791802 -0.000000
v -0.480024 2.009034 -0.198832
v -0.512919 2.009034 -0.000000
v -0.362688 2.009034 -0.362688
v -0.198832 2.009034 -0.480024
v -0.000000 2.009034 -0.512919
v -0.480024 2.009034 0.198832
v -0.362688 2.009034 0.362688
v -0.198832 2.009034 0.480024
v 0.000000 2.009034 0.512918
v 0.198833 2.009034 0.480024
v 0.362688 2.009034 0.362688
v 0.480024 2.009034 0.198832
v 0.512919 2.009034 -0.000001
v 0.480024 2.009034 -0.198833
v 0.362688 2.009034 -0.362689
v 0.198832 2.009034 -0.480024
v 0.000000 2.587302 -0.000000
v -0.754091 1.232512 -0.312354
v -0.805766 1.232512 0.000000
v -0.569763 1.232512 -0.569763
v -0.312354 1.232512 -0.754091
v -0.000000 1.232512 -0.805766
v -0.754091 1.232512 0.312355
v -0.569763 1.232512 0.569763
v -0.312354 1.232512 0.754091
v 0.000000 1.232512 0.805767
v 0.312355 1.232512 0.754091
v 0.569763 1.232512 0.569763
v 0.754091 1.232512 0.312354
v 0.805766 1.232512 -0.000001
v 0.754091 1.232512 -0.312356
v 0.569762 1.232512 -0.569763
v 0.312354 1.232512 -0.754091
v -0.000000 2.140938 -0.000000
v -0.616841 1.623518 -0.255504
v -0.659111 1.623518 0.000000
v -0.466062 1.623518 -0.466062
v -0.255504 1.623518 -0.616841
v -0.000000 1.623518 -0.659111
v -0.616841 1.623518 0.255504
v -0.466062 1.623518 0.466062
v -0.255504 1.623518 0.616841
v 0.000000 1.623518 0.659111
v 0.255504 1.623518 0.616841
v 0.466062 1.623518 0.466062
v 0.616841 1.623518 0.255504
v 0.659111 1.623518 -0.000000
v 0.616841 1.623518 -0.255505
v 0.466061 1.623518 -0.466062
v 0.255503 1.623518 -0.616841
v 0.000000 2.366605 -0.000000
v -0.371794 0.017849 0.000000
v -0.347950 0.017849 -0.144125
v -0.262898 0.017849 -0.262898
v -0.144125 0.017849 -0.347949
v -0.000000 0.017849 -0.371793
v -0.347950 0.017849 0.144125
v -0.262898 0.017849 0.262898
v -0.144125 0.017849 0.347950
v 0.000000 0.017849 0.371794
v 0.144126 0.017849 0.347950
v 0.262898 0.017849 0.262898
v 0.347950 0.017849 0.144125
v 0.371793 0.017849 -0.000000
v 0.347949 0.017849 -0.144126
v 0.262897 0.017849 -0.262898
v 0.144125 0.017849 -0.347950
v 0.144125 0.757353 -0.347950
v 0.262897 0.757353 -0.262898
v 0.347949 0.757353 -0.144126
v 0.371793 0.757353 -0.000000
v 0.347950 0.757353 0.144125
v 0.262898 0.757353 0.262898
v 0.144126 0.757353 0.347950
v 0.000000 0.757353 0.371794
v -0.144125 0.757353 0.347950
v -0.262898 0.757353 0.262898
v -0.347950 0.757353 0.144125
v -0.000000 0.757353 -0.371793
v -0.144125 0.757353 -0.347949
v -0.262898 0.757353 -0.262898
v -0.347950 0.757353 -0.144125
v -0.371794 0.757353 0.000000
vt 0.150895 0.812008
vt 0.157140 0.816025
vt 0.157140 0.851020
vt 0.134427 0.862391
vt 0.143062 0.858579
vt 0.157140 0.898364
vt 0.204932 0.814869
vt 0.205179 0.802963
vt 0.255630 0.802710
vt 0.150895 0.859352
vt 0.237974 0.852604
vt 0.227146 0.847823
vt 0.237974 0.793231
vt 0.227146 0.788450
vt 0.255630 0.743336
vt 0.143062 0.811234
vt 0.116714 0.888668
vt 0.120351 0.878467
vt 0.126317 0.869058
vt 0.119879 0.905923
vt 0.116911 0.898163
vt 0.116714 0.841324
vt 0.120351 0.831122
vt 0.119879 0.858579
vt 0.116911 0.850818
vt 0.126317 0.821713
vt 0.134427 0.815046
vt 0.157140 0.863370
vt 0.247798 0.792261
vt 0.216974 0.839463
vt 0.062452 0.834899
vt 0.094071 0.811234
vt 0.111941 0.822857
vt 0.208901 0.793231
vt 0.209493 0.827663
vt 0.204932 0.755496
vt 0.205179 0.743590
vt 0.216974 0.780089
vt 0.209493 0.768289
vt 0.208901 0.733857
vt 0.255630 0.846596
vt 0.247798 0.851634
vt 0.255630 0.787223
vt 0.176536 0.733857
vt 0.198947 0.748433
vt 0.136883 0.763534
vt 0.858190 0.721674
vt 0.862164 0.710528
vt 0.902359 0.732268
vt 0.886977 0.637072
vt 0.895536 0.637917
vt 0.902359 0.680541
vt 0.886977 0.688799
vt 0.895536 0.689644
vt 0.877543 0.692964
vt 0.902359 0.642306
vt 0.868682 0.700248
vt 0.861648 0.740526
vt 0.858406 0.732047
vt 0.858190 0.669947
vt 0.862164 0.658801
vt 0.861648 0.688799
vt 0.858406 0.680320
vt 0.868682 0.648521
vt 0.877543 0.641237
vt 0.902359 0.694034
vt 0.833452 0.699033
vt 0.798905 0.673178
vt 0.852976 0.686335
vt 0.751563 0.822794
vt 0.754732 0.813905
vt 0.786789 0.831243
vt 0.774521 0.755321
vt 0.781347 0.755995
vt 0.786789 0.789989
vt 0.774521 0.796576
vt 0.781347 0.797249
vt 0.766998 0.799897
vt 0.786789 0.759496
vt 0.759930 0.805706
vt 0.754321 0.837830
vt 0.751735 0.831067
vt 0.751563 0.781540
vt 0.754732 0.772651
vt 0.754321 0.796576
vt 0.751735 0.789813
vt 0.759930 0.764452
vt 0.766998 0.758643
vt 0.786789 0.800750
vt 0.704281 0.784117
vt 0.741873 0.759668
vt 0.731833 0.804737
vt 0.327937 0.911721
vt 0.324984 0.903999
vt 0.365014 0.904200
vt 0.334343 0.827928
vt 0.342413 0.821294
vt 0.365014 0.857090
vt 0.334343 0.875038
vt 0.342413 0.868404
vt 0.328406 0.884400
vt 0.351005 0.817501
vt 0.324788 0.894552
vt 0.358800 0.818270
vt 0.327937 0.864611
vt 0.324984 0.856889
vt 0.351005 0.864611
vt 0.358800 0.865380
vt 0.324788 0.847442
vt 0.328406 0.837291
vt 0.365014 0.822268
vt 0.365014 0.869378
vt 0.270794 0.841048
vt 0.302257 0.817501
vt 0.275543 0.862366
vt 0.488407 0.212265
vt 0.488407 0.076248
vt 0.508964 0.076248
vt 0.466378 0.076248
vt 0.466378 0.212265
vt 0.444349 0.212265
vt 0.466378 0.348282
vt 0.486935 0.212265
vt 0.422320 0.212265
vt 0.422320 0.076248
vt 0.444349 0.076248
vt 0.508964 0.212265
vt 0.529136 0.076248
vt 0.527281 0.348282
vt 0.527281 0.212265
vt 0.543513 0.212265
vt 0.529136 0.212265
vt 0.545369 0.076248
vt 0.446205 0.348282
vt 0.446205 0.212265
vt 0.444349 0.348282
vt 0.423792 0.348282
vt 0.400291 0.212265
vt 0.400291 0.076248
vt 0.543513 0.348282
vt 0.559745 0.212265
vt 0.486935 0.348282
vt 0.507108 0.212265
vt 0.312258 0.223050
vt 0.400291 0.289810
vt 0.299306 0.318463
vt 0.507108 0.348282
vt 0.299306 0.103901
vt 0.400291 0.132553
vt 0.390552 0.183529
vt 0.545369 0.212265
vt 0.561601 0.076248
vt 0.401763 0.348282
vt 0.401763 0.212265
vt 0.104301 0.814871
vt 0.116714 0.832988
vt 0.116714 0.844281
vt 0.113234 0.854972
vt 0.105594 0.862957
vt 0.095899 0.867945
vt 0.085094 0.867945
vt 0.074865 0.864309
vt 0.067224 0.856323
vt 0.062452 0.846192
vt 0.065932 0.824208
vt 0.073572 0.816222
vt 0.083266 0.811234
vt 0.200568 0.788708
vt 0.190986 0.798722
vt 0.204932 0.775300
vt 0.178829 0.804977
vt 0.165278 0.804977
vt 0.152450 0.800416
vt 0.142868 0.790402
vt 0.136883 0.777697
vt 0.141247 0.750127
vt 0.150829 0.740113
vt 0.162986 0.733857
vt 0.189365 0.738418
vt 0.204932 0.761138
vt 0.812467 0.641046
vt 0.823643 0.637072
vt 0.804119 0.649770
vt 0.835449 0.637072
vt 0.846040 0.642522
vt 0.854388 0.651246
vt 0.858190 0.662927
vt 0.858190 0.675265
vt 0.844628 0.695059
vt 0.821646 0.699033
vt 0.811055 0.693583
vt 0.802707 0.684859
vt 0.798905 0.660840
vt 0.748530 0.766626
vt 0.751563 0.775942
vt 0.751563 0.785782
vt 0.747404 0.794610
vt 0.740746 0.801568
vt 0.722418 0.804737
vt 0.713971 0.800391
vt 0.707313 0.793433
vt 0.704281 0.774277
vt 0.708439 0.765449
vt 0.715097 0.758490
vt 0.724011 0.755321
vt 0.733426 0.755321
vt 0.324788 0.839147
vt 0.324788 0.850384
vt 0.320039 0.829066
vt 0.321325 0.861022
vt 0.313722 0.868968
vt 0.304076 0.873931
vt 0.293325 0.873931
vt 0.283146 0.870312
vt 0.270794 0.852285
vt 0.274257 0.830410
vt 0.281859 0.822464
vt 0.291505 0.817501
vt 0.312436 0.821120
vt 0.423792 0.212265
vt 0.559745 0.348282
vt 0.393190 0.315248
vt 0.377599 0.334247
vt 0.357818 0.346116
vt 0.335770 0.346116
vt 0.314896 0.337462
vt 0.289567 0.294356
vt 0.289567 0.267487
vt 0.296668 0.242049
vt 0.332039 0.211182
vt 0.354088 0.211182
vt 0.374962 0.219835
vt 0.390552 0.238835
vt 0.400291 0.262941
vt 0.374962 0.202528
vt 0.312258 0.199314
vt 0.296668 0.180314
vt 0.289567 0.154876
vt 0.289567 0.128007
vt 0.314896 0.084902
vt 0.335770 0.076248
vt 0.357818 0.076248
vt 0.377599 0.088116
vt 0.393190 0.107116
vt 0.400291 0.159423
vt 0.561601 0.212265
vt 0.422320 0.348282
vn 0.742400 0.658500 -0.122800
vn -0.611800 0.658500 -0.438100
vn 0.122800 0.658500 -0.742400
vn -0.742400 0.658500 -0.122800
vn 0.742400 0.658500 0.122800
vn -0.122800 0.658500 -0.742400
vn 0.611800 0.658500 -0.438100
vn -0.122800 0.658500 0.742400
vn -0.611800 0.658500 0.438100
vn 0.122800 0.658500 0.742400
vn 0.438100 0.658500 0.611800
vn 0.438100 0.658500 -0.611800
vn -0.742400 0.658500 0.122800
vn -0.438100 0.658500 -0.611800
vn -0.438100 0.658500 0.611800
vn 0.611800 0.658500 0.438100
vn 0.000000 -1.000000 0.000000
vn -0.813000 0.000000 0.582200
vn -0.986600 0.000000 -0.163200
vn -0.986600 0.000000 0.163200
vn 0.986600 0.000000 0.163200
vn -0.813000 0.000000 -0.582200
vn 0.813000 0.000000 -0.582200
vn -0.582200 0.000000 -0.813000
vn 0.163200 0.000000 -0.986600
vn 0.582200 0.000000 -0.813000
vn -0.163200 0.000000 -0.986600
vn -0.582200 0.000000 0.813000
vn 0.163200 0.000000 0.986600
vn -0.163200 0.000000 0.986600
vn 0.813000 0.000000 0.582200
vn 0.000000 1.000000 -0.000000
vn 0.582200 0.000000 0.813000
vn 0.986600 0.000000 -0.163200
s off
f 15/1/1 16/2/1 19/3/1
f 3/4/2 2/5/2 19/6/2
f 33/7/3 22/8/3 34/9/3
f 2/5/4 1/10/4 19/6/4
f 29/11/5 30/12/5 34/9/5
f 12/13/4 13/14/4 34/15/4
f 14/16/5 15/1/5 19/3/5
f 18/17/3 5/18/3 19/6/3
f 5/18/6 4/19/6 19/6/6
f 16/20/7 17/21/7 19/6/7
f 8/22/8 9/23/8 19/3/8
f 6/24/9 7/25/9 19/3/9
f 9/23/10 10/26/10 19/3/10
f 10/26/11 11/27/11 19/3/11
f 17/21/12 18/17/12 19/6/12
f 1/10/13 6/28/13 19/6/13
f 4/19/14 3/4/14 19/6/14
f 7/25/15 8/22/15 19/3/15
f 20/29/2 12/13/2 34/15/2
f 30/12/1 31/30/1 34/9/1
f 11/27/16 14/16/16 19/3/16
f 15/31/17 9/32/17 7/33/17
f 22/8/6 21/34/6 34/9/6
f 31/30/7 32/35/7 34/9/7
f 25/36/8 26/37/8 34/15/8
f 23/38/9 24/39/9 34/15/9
f 26/37/10 27/40/10 34/15/10
f 27/41/11 28/42/11 34/9/11
f 32/35/12 33/7/12 34/9/12
f 13/14/13 23/38/13 34/15/13
f 21/43/14 20/29/14 34/15/14
f 24/39/15 25/36/15 34/15/15
f 28/42/16 29/11/16 34/9/16
f 30/44/17 28/45/17 22/46/17
f 50/47/3 39/48/3 51/49/3
f 46/50/5 47/51/5 51/52/5
f 35/53/4 36/54/4 51/49/4
f 37/55/2 35/53/2 51/49/2
f 47/51/1 48/56/1 51/52/1
f 39/48/6 38/57/6 51/49/6
f 48/58/7 49/59/7 51/49/7
f 42/60/8 43/61/8 51/52/8
f 40/62/9 41/63/9 51/52/9
f 43/61/10 44/64/10 51/52/10
f 44/64/11 45/65/11 51/52/11
f 49/59/12 50/47/12 51/49/12
f 36/54/13 40/66/13 51/49/13
f 38/57/14 37/55/14 51/49/14
f 41/63/15 42/60/15 51/52/15
f 45/65/16 46/50/16 51/52/16
f 49/67/17 45/68/17 39/69/17
f 67/70/3 56/71/3 68/72/3
f 63/73/5 64/74/5 68/75/5
f 52/76/4 53/77/4 68/72/4
f 54/78/2 52/76/2 68/72/2
f 64/74/1 65/79/1 68/75/1
f 56/71/6 55/80/6 68/72/6
f 65/81/7 66/82/7 68/72/7
f 59/83/8 60/84/8 68/75/8
f 57/85/9 58/86/9 68/75/9
f 60/84/10 61/87/10 68/75/10
f 61/87/11 62/88/11 68/75/11
f 66/82/12 67/70/12 68/72/12
f 53/77/13 57/89/13 68/72/13
f 55/80/14 54/78/14 68/72/14
f 58/86/15 59/83/15 68/75/15
f 62/88/16 63/73/16 68/75/16
f 66/90/17 60/91/17 54/92/17
f 84/93/3 73/94/3 85/95/3
f 80/96/5 81/97/5 85/98/5
f 69/99/4 70/100/4 85/95/4
f 71/101/2 69/99/2 85/95/2
f 81/97/1 82/102/1 85/98/1
f 73/94/6 72/103/6 85/95/6
f 82/102/7 83/104/7 85/98/7
f 76/105/8 77/106/8 85/98/8
f 74/107/9 75/108/9 85/95/9
f 77/106/10 78/109/10 85/98/10
f 78/109/11 79/110/11 85/98/11
f 83/104/12 84/111/12 85/98/12
f 70/100/13 74/107/13 85/95/13
f 72/103/14 71/101/14 85/95/14
f 75/108/15 76/112/15 85/95/15
f 79/110/16 80/96/16 85/98/16
f 83/113/17 79/114/17 73/115/17
f 112/116/18 91/117/18 92/118/18
f 116/119/19 87/120/19 86/121/19
f 117/122/20 86/120/20 91/123/20
f 106/124/21 97/125/21 98/126/21
f 115/127/22 88/118/22 87/128/22
f 104/129/23 99/130/23 100/131/23
f 114/132/24 89/128/24 88/133/24
f 102/117/25 101/116/25 90/120/25
f 103/134/26 100/135/26 101/120/26
f 113/121/27 90/136/27 89/137/27
f 111/138/28 92/139/28 93/125/28
f 109/140/29 94/131/29 95/141/29
f 110/142/30 93/123/30 94/143/30
f 100/144/17 94/145/17 88/146/17
f 107/147/31 96/143/31 97/130/31
f 115/148/32 109/149/32 107/150/32
f 108/151/33 95/133/33 96/152/33
f 105/153/34 98/154/34 99/124/34
f 8/155/17 7/33/17 9/32/17
f 6/156/17 1/157/17 7/33/17
f 2/158/17 3/159/17 1/157/17
f 4/160/17 5/161/17 3/159/17
f 18/162/17 17/163/17 5/161/17
f 16/164/17 15/31/17 17/163/17
f 14/165/17 11/166/17 15/31/17
f 10/167/17 9/32/17 11/166/17
f 7/33/17 1/157/17 3/159/17
f 3/159/17 5/161/17 7/33/17
f 17/163/17 15/31/17 5/161/17
f 11/166/17 9/32/17 15/31/17
f 7/33/17 5/161/17 15/31/17
f 25/168/17 24/169/17 26/170/17
f 23/171/17 13/172/17 24/169/17
f 12/173/17 20/174/17 13/172/17
f 21/175/17 22/46/17 20/174/17
f 33/176/17 32/177/17 22/46/17
f 31/178/17 30/44/17 32/177/17
f 29/179/17 28/45/17 30/44/17
f 27/180/17 26/170/17 28/45/17
f 24/169/17 13/172/17 20/174/17
f 20/174/17 22/46/17 28/45/17
f 32/177/17 30/44/17 22/46/17
f 28/45/17 26/170/17 20/174/17
f 24/169/17 20/174/17 26/170/17
f 42/181/17 41/182/17 43/183/17
f 40/184/17 36/185/17 41/182/17
f 35/186/17 37/187/17 36/185/17
f 38/188/17 39/69/17 37/187/17
f 50/189/17 49/67/17 39/69/17
f 48/190/17 47/191/17 49/67/17
f 46/192/17 45/68/17 47/191/17
f 44/193/17 43/183/17 45/68/17
f 41/182/17 36/185/17 43/183/17
f 37/187/17 39/69/17 45/68/17
f 49/67/17 47/191/17 45/68/17
f 45/68/17 43/183/17 37/187/17
f 36/185/17 37/187/17 43/183/17
f 59/194/17 58/195/17 60/91/17
f 57/196/17 53/197/17 58/195/17
f 52/198/17 54/92/17 53/197/17
f 55/199/17 56/200/17 54/92/17
f 67/201/17 66/90/17 56/200/17
f 65/202/17 64/203/17 66/90/17
f 63/204/17 62/205/17 64/203/17
f 61/206/17 60/91/17 62/205/17
f 58/195/17 53/197/17 60/91/17
f 54/92/17 56/200/17 66/90/17
f 66/90/17 64/203/17 60/91/17
f 62/205/17 60/91/17 64/203/17
f 53/197/17 54/92/17 60/91/17
f 76/207/17 75/208/17 77/209/17
f 74/210/17 70/211/17 75/208/17
f 69/212/17 71/213/17 70/211/17
f 72/214/17 73/115/17 71/213/17
f 84/215/17 83/113/17 73/115/17
f 82/216/17 81/217/17 83/113/17
f 80/218/17 79/114/17 81/217/17
f 78/219/17 77/209/17 79/114/17
f 75/208/17 70/211/17 71/213/17
f 71/213/17 73/115/17 79/114/17
f 83/113/17 81/217/17 79/114/17
f 79/114/17 77/209/17 71/213/17
f 75/208/17 71/213/17 77/209/17
f 111/127/18 112/116/18 92/118/18
f 117/126/19 116/119/19 86/121/19
f 112/142/20 117/122/20 91/123/20
f 105/121/21 106/124/21 98/126/21
f 116/132/22 115/127/22 87/128/22
f 103/140/23 104/129/23 100/131/23
f 115/151/24 114/132/24 88/133/24
f 113/119/25 102/117/25 90/120/25
f 102/122/26 103/134/26 101/120/26
f 114/220/27 113/121/27 89/137/27
f 110/124/28 111/138/28 93/125/28
f 108/221/29 109/140/29 95/141/29
f 109/147/30 110/142/30 94/143/30
f 93/222/17 92/223/17 94/145/17
f 91/224/17 86/225/17 92/223/17
f 87/226/17 88/146/17 86/225/17
f 89/227/17 90/228/17 88/146/17
f 101/229/17 100/144/17 90/228/17
f 99/230/17 98/231/17 100/144/17
f 97/232/17 96/233/17 98/231/17
f 95/234/17 94/145/17 96/233/17
f 92/223/17 86/225/17 88/146/17
f 88/146/17 90/228/17 100/144/17
f 100/144/17 98/231/17 96/233/17
f 96/233/17 94/145/17 100/144/17
f 92/223/17 88/146/17 94/145/17
f 106/129/31 107/147/31 97/130/31
f 107/150/32 106/235/32 105/231/32
f 105/231/32 104/230/32 103/236/32
f 103/236/32 102/237/32 113/238/32
f 113/238/32 114/239/32 115/148/32
f 115/148/32 116/240/32 117/241/32
f 117/241/32 112/242/32 111/243/32
f 111/243/32 110/244/32 109/149/32
f 109/149/32 108/245/32 107/150/32
f 107/150/32 105/231/32 103/236/32
f 103/236/32 113/238/32 115/148/32
f 115/148/32 117/241/32 111/243/32
f 111/243/32 109/149/32 115/148/32
f 107/150/32 103/236/32 115/148/32
f 107/246/33 108/151/33 96/152/33
f 104/247/34 105/153/34 99/124/34
